<?xml version="1.0" encoding="utf-8"?>
<svg viewBox="0 0 622 124" xmlns="http://www.w3.org/2000/svg">
  <g fill="none" fill-rule="evenodd" transform="matrix(1.0000000000000002, 0, 0, 1.0000000000000002, -53.875058023259896, -44.116421403235506)" style="">
    <g transform="matrix(1, 0, 0, 1, -0.00003, 6.873244)" style="transform-origin: 52.16px 62.096px;">
      <path d="M 91.259 80.795 L 102.259 80.795 L 102.259 124.795 L 3.259 124.795 L 3.259 80.795 L 14.259 80.795 L 14.259 113.795 L 91.259 113.795 L 91.259 80.795 Z" style="fill: rgb(247, 180, 196);"/>
      <path fill-rule="nonzero" d="M 26.247 77.525 L 80.272 88.88 L 82.542 78.08 L 28.518 66.72 L 26.247 77.525 Z M 33.396 51.656 L 83.442 74.964 L 88.104 64.955 L 38.057 41.647 L 33.396 51.656 Z M 47.244 27.103 L 89.672 62.434 L 96.738 53.949 L 54.31 18.619 L 47.244 27.103 Z M 74.631 0.987 L 65.771 7.577 L 98.719 51.877 L 107.579 45.288 L 74.631 0.987 Z M 25.259 102.795 L 80.259 102.795 L 80.259 91.795 L 25.259 91.795 L 25.259 102.795 Z" style="fill: rgb(247, 180, 196); transform-box: fill-box; transform-origin: 50% 50%;"/>
    </g>
    <g fill="none" fill-rule="evenodd" style="" transform="matrix(1, 0, 0, 1, 382.504766, 174.269076)">
      <g transform="matrix(1, 0, 0, 1, 0, 6.87)" style="">
        <path d="M 91.259 80.795 L 102.259 80.795 L 102.259 124.795 L 3.259 124.795 L 3.259 80.795 L 14.259 80.795 L 14.259 113.795 L 91.259 113.795 L 91.259 80.795 Z" style="fill: rgb(247, 180, 196);"/>
        <path fill-rule="nonzero" d="M 26.247 77.525 L 80.272 88.88 L 82.542 78.08 L 28.518 66.72 L 26.247 77.525 Z M 33.396 51.656 L 83.442 74.964 L 88.104 64.955 L 38.057 41.647 L 33.396 51.656 Z M 47.244 27.103 L 89.672 62.434 L 96.738 53.949 L 54.31 18.619 L 47.244 27.103 Z M 74.631 0.987 L 65.771 7.577 L 98.719 51.877 L 107.579 45.288 L 74.631 0.987 Z M 25.259 102.795 L 80.259 102.795 L 80.259 91.795 L 25.259 91.795 L 25.259 102.795 Z" style="fill: rgb(247, 180, 196);"/>
      </g>
    </g>
  </g>
</svg>